<svg id="eVCmgG5jNPB1" xmlns="http://www.w3.org/2000/svg" xmlns:xlink="http://www.w3.org/1999/xlink" viewBox="0 0 300 300" shape-rendering="geometricPrecision" text-rendering="geometricPrecision" project-id="0733639b31004e0fbac50688b3ddaa52" export-id="921c8cf7ae8843109f615011fce11e34" cached="false"><path d="M138.750997,61.379999q0,.246538,75.687166,22.681496c0,0,31.851863-35.936342,42.651073-25.639952s-25.886489,42.404536-25.886489,42.404536l19.794033,74.128462-10.745849,8.329623-37.89313-53.859677-26.626104,23.42111l4.628324,23.713333-7.543505,6.92136-16.222624-26.943558q-27.211339-15.278421-27.211339-15.524959t8.438321-7.536366l24.104695,5.564062l23.914186-26.379566-56.904242-41.581474q9.815484-9.944968,9.815484-9.69843Z" stroke-width="0.6" stroke-linejoin="round"/><polygon points="50,12.66 59.21,41 89,41 64.9,58.51 74.1,86.85 50,69.33 25.9,86.85 35.1,58.51 11,41 40.79,41 50,12.66" transform="matrix(.626536 0 0 0.626526 70.959654 86.343473)"/><path d="M147.836829,168.408553c2.830026-2.326031,4.483072-.144391,2.823072,1.935609c0-1.946869-58.545682,63.939111-94.686696,59.10427s-10.289524-52.218365-10.289524-52.218365c.003874-.003874-14.048429,33.36547,9.340481,42.663637s92.812667-51.485151,92.812667-51.485151Z" transform="translate(-1.59516-2.96796)" stroke-width="0.6" stroke-linejoin="round"/></svg>
